<svg width="350" height="193" viewBox="0 0 350 193" fill="none" xmlns="http://www.w3.org/2000/svg">
<path fill-rule="evenodd" clip-rule="evenodd" d="M85.3398 9.21787C86.6734 9.4646 86.8693 11.2248 87.2738 12.1796C88.4043 15.1663 89.5676 18.1573 90.7025 21.1112C94.2791 30.4295 97.8556 39.7478 101.437 49.0334C102.3 51.2837 103.163 53.5341 104.026 55.7845C104.531 56.9862 104.723 58.2791 105.934 58.9427C149.954 76.1549 194.008 93.3715 238.066 110.555C250.576 115.445 263.053 120.33 275.563 125.22C279.111 126.599 282.626 127.974 286.174 129.353C287.187 129.756 288.171 130.122 289.183 130.526C289.624 130.719 290.244 131.069 290.879 131.055C292.019 131.009 292.668 130.396 293.464 129.937C294.519 129.279 295.571 128.654 296.626 127.996C301.166 125.242 305.668 122.516 310.208 119.761C311.445 118.994 312.678 118.261 313.915 117.494C314.492 117.172 315.067 116.616 315.838 116.587C316.847 116.523 317.293 117.417 317.628 117.895C318.757 119.415 319.89 120.901 321.018 122.421C324.55 127.132 328.049 131.838 331.58 136.55C332.681 138.032 333.785 139.481 334.886 140.963C335.297 141.619 335.792 142.153 336.018 142.95C336.712 145.711 333.947 147.672 331.35 146.654C327.702 145.028 324.054 143.402 320.406 141.776C319.463 141.349 318.549 140.958 317.606 140.531C317.231 140.347 316.64 140.034 316.155 140.168C315.152 140.433 314.826 143.59 314.457 144.84C313.587 148.324 312.717 151.807 311.846 155.291C311.561 156.419 311.279 157.515 310.994 158.643C310.829 159.121 310.573 159.786 310.62 160.426C310.645 160.73 310.736 161.042 310.915 161.2C311.362 161.593 313.303 161.789 314.074 161.759C314.565 161.826 315.089 161.896 315.584 161.93C316.833 162.065 318.082 162.201 319.368 162.307C320.387 162.412 321.407 162.516 322.394 162.616C323.413 162.72 324.4 162.82 325.419 162.924C327.76 162.874 329.68 163.466 330.383 164.928C330.725 165.608 330.804 166.752 330.324 167.587C329.762 168.545 328.733 169.006 327.806 169.448C326.377 170.155 324.952 170.83 323.523 171.537C317.704 174.386 311.885 177.234 306.07 180.05C304.319 180.914 302.574 181.745 300.823 182.609C300.288 182.871 299.433 183.522 298.575 183.206C297.783 182.899 297.435 182.019 297.057 181.367C296.247 179.958 295.432 178.581 294.622 177.171C291.535 171.887 288.48 166.606 285.388 161.354C284.654 160.122 283.958 158.861 283.224 157.628C282.764 156.833 282.379 155.98 281.4 155.581C280.701 155.32 279.828 155.369 279.06 155.132C276.711 154.748 274.329 154.36 271.981 153.976C263.077 152.508 254.173 151.039 245.273 149.537C208.876 143.524 172.483 137.477 136.086 131.463C124.576 129.543 113.061 127.655 101.551 125.734C98.421 125.211 95.2581 124.684 92.1278 124.162C91.6039 124.091 91.0844 123.988 90.5605 123.917C89.6003 123.621 88.1268 123.422 87.3011 123.61C86.1259 123.918 85.0897 124.679 84.0845 125.21C82.2509 126.196 80.3846 127.178 78.5511 128.164C72.3381 131.459 66.088 134.783 59.8751 138.079C52.8338 141.829 45.8253 145.584 38.7885 149.302C36.9921 150.26 35.1914 151.251 33.3622 152.204C32.7242 152.485 31.8463 152.566 31.1418 152.104C29.3319 150.693 27.4892 149.277 25.6792 147.866C24.6587 147.028 23.2603 146.272 22.5743 145.18C21.8689 143.984 21.7713 142.237 21.433 140.791C20.783 137.703 20.1003 134.61 19.4503 131.521C17.225 121.085 14.9625 110.677 12.7372 100.241C11.8206 95.9162 10.8714 91.5871 9.95483 87.2623C9.70957 86.3623 8.81892 83.5748 9.54798 82.3729C10.4434 80.9267 12.6604 81.7928 14.2162 82.3696C18.4041 83.7018 22.6247 85.0385 26.817 86.3379C27.4586 86.5246 28.0675 86.7068 28.7092 86.8934C29.4074 87.1544 30.5332 87.7065 31.3261 87.5135C31.6013 87.4506 31.8986 87.224 32.0606 87.0125C32.4587 86.5327 32.6542 85.8256 32.9347 85.23C33.5504 83.8795 34.1662 82.5289 34.7864 81.1456C36.7301 76.8736 38.6738 72.6015 40.6175 68.3295C41.2793 66.8851 41.9083 65.4364 42.5701 63.992C42.8506 63.3964 42.9894 62.6149 42.6955 62.0751C42.3777 61.4654 41.8175 60.923 41.351 60.4266C40.4836 59.4426 39.6206 58.4259 38.7532 57.4419C36.2165 54.4988 33.6798 51.5558 31.143 48.6127C30.134 47.4429 29.125 46.2731 28.1115 45.136C27.8283 44.7644 27.4123 44.1414 27.6033 43.467C28.0536 41.8607 30.1269 41.0737 31.318 40.401C34.6488 38.45 37.9796 36.4991 41.306 34.5809C51.2939 28.7609 61.2862 22.9081 71.2741 17.0881C74.2421 15.3549 77.2101 13.6217 80.1781 11.8885C81.9417 10.9263 83.3672 9.75178 85.3398 9.21787Z" fill="#010202"/>
<path fill-rule="evenodd" clip-rule="evenodd" d="M51.592 41.3708C50.4868 41.6551 49.3797 41.7057 48.2744 41.9899C44.808 42.7222 41.3089 43.4501 37.847 44.1497C36.7461 44.4012 35.5974 44.5129 34.5815 44.8758C34.232 44.9954 33.7382 45.1954 33.8595 45.7786C34.0287 46.5016 35.7289 48.2315 36.2848 48.8067C38.2462 51.0719 40.2076 53.3372 42.1362 55.5981C42.7726 56.3175 43.4418 57.0413 44.0782 57.7607C44.3791 58.0014 44.8897 58.1703 45.2286 57.8827C45.9525 57.2135 46.6416 55.0727 47.1521 54.008C48.48 51.0865 49.8035 48.1978 51.1315 45.2763C51.5084 44.4603 51.857 43.6071 52.2338 42.7911C52.3391 42.5053 52.5037 42.0274 52.3753 41.7433C52.2469 41.4593 51.9894 41.3911 51.592 41.3708Z" fill="#010101"/>
<path fill-rule="evenodd" clip-rule="evenodd" d="M17.7232 87.5109C17.5506 87.5542 17.3825 87.5649 17.2382 87.6454C16.9029 88.4004 18.2085 89.8436 18.605 90.3639C20.3195 92.7292 22.0013 95.0901 23.7158 97.4554C24.2256 98.1244 24.7638 98.8305 25.2736 99.4995C25.4524 99.657 25.8604 99.8454 26.1445 99.7171C26.8241 99.3754 27.5548 97.1735 27.9405 96.292C28.4554 95.1945 28.9747 94.0643 29.4569 92.9625C29.6409 92.5872 29.8603 91.95 29.6797 91.5589C29.3274 90.7111 27.5875 90.5096 26.5706 90.1389C24.7811 89.5639 22.9872 89.0217 21.1977 88.4467C20.1437 88.1043 19.0002 87.6833 17.7232 87.5109Z" fill="#010101"/>
<path fill-rule="evenodd" clip-rule="evenodd" d="M84.3754 110.212C83.578 110.438 82.2498 110.892 81.9472 111.651C81.8048 111.966 81.9199 112.348 82.0243 112.562C82.3138 113.135 83.8105 115.137 84.5486 115.103C84.8964 114.75 84.8715 113.947 84.8484 113.377C84.881 112.148 85.7135 110.426 84.3754 110.212Z" fill="#010101"/>
<path fill-rule="evenodd" clip-rule="evenodd" d="M90.4323 111.53C89.5846 111.882 90.0626 113.28 90.506 113.207C91.1458 113.16 91.4518 111.634 90.4323 111.53Z" fill="#010101"/>
<path fill-rule="evenodd" clip-rule="evenodd" d="M100.922 113.846C99.7665 114.257 100.547 116.13 101.023 116.06C101.761 116.027 102.367 114.008 100.922 113.846Z" fill="#010101"/>
<path fill-rule="evenodd" clip-rule="evenodd" d="M107.664 115.523C107.068 115.743 106.871 116.95 107.629 117.019C108.184 116.86 108.581 115.647 107.664 115.523Z" fill="#010101"/>
<path fill-rule="evenodd" clip-rule="evenodd" d="M114.013 117.147C113.613 117.393 113.584 117.856 113.904 118.199C113.937 118.204 113.97 118.208 114.035 118.217C114.394 118.032 114.803 117.221 114.013 117.147Z" fill="#010101"/>
<path fill-rule="evenodd" clip-rule="evenodd" d="M121.299 118.498C120.987 118.589 120.725 118.553 120.55 118.863C120.237 119.454 120.706 120.918 121.317 120.834C122.134 120.711 123.175 118.684 121.299 118.498Z" fill="#010101"/>
<path fill-rule="evenodd" clip-rule="evenodd" d="M129.29 120.31C129.048 120.377 128.786 120.342 128.633 120.488C128.095 121.015 128.841 122.65 129.045 123.111C129.193 123.498 129.423 124.262 130.146 124.093C130.664 123.963 131.808 122.65 132.075 122.153C132.209 121.904 132.304 121.45 132.166 121.232C131.868 120.725 130.179 120.396 129.29 120.31Z" fill="#010101"/>
<path fill-rule="evenodd" clip-rule="evenodd" d="M77.2484 114.351C76.7962 114.49 76.3855 114.568 76.1599 115.004C75.783 115.82 77.2744 117.122 78.0169 117.056C78.6708 116.41 78.067 114.462 77.2484 114.351Z" fill="#010101"/>
<path fill-rule="evenodd" clip-rule="evenodd" d="M140.085 122.834C139.843 122.901 139.614 122.87 139.461 123.017C138.923 123.544 139.852 125.303 140.094 125.736C140.25 126.057 140.54 126.63 141.127 126.476C141.715 126.322 142.693 125.253 143.025 124.765C143.187 124.553 143.376 124.145 143.215 123.857C142.93 123.251 141.039 122.93 140.085 122.834Z" fill="#010101"/>
<path fill-rule="evenodd" clip-rule="evenodd" d="M150.885 125.326C150.642 125.393 150.413 125.362 150.256 125.541C149.816 126.082 150.841 128.12 151.105 128.389C151.284 128.547 151.635 128.661 151.915 128.565C152.367 128.426 154.07 126.923 153.729 126.243C153.443 125.638 151.867 125.458 150.885 125.326Z" fill="#010101"/>
<path fill-rule="evenodd" clip-rule="evenodd" d="M161.554 127.8C161.246 127.858 161.049 127.831 160.831 127.969C160.467 128.686 161.403 130.646 162.272 130.63C162.907 130.616 163.325 130.239 163.795 129.969C164.083 129.808 164.804 129.405 164.67 128.92C164.459 128.258 162.475 127.891 161.554 127.8Z" fill="#010101"/>
<path fill-rule="evenodd" clip-rule="evenodd" d="M135.167 124.937C134.645 125.1 133.366 125.928 133.452 126.773C133.532 127.417 135.049 127.789 135.809 127.591C136.947 127.312 135.944 125.109 135.167 124.937Z" fill="#010101"/>
<path fill-rule="evenodd" clip-rule="evenodd" d="M116.69 122.51C116.22 122.78 115.457 123.744 116.189 124.243C116.312 124.326 116.499 124.418 116.733 124.416C117.709 124.348 117.607 122.634 116.69 122.51Z" fill="#010101"/>
<path fill-rule="evenodd" clip-rule="evenodd" d="M124.798 123.704C123.683 124.054 123.176 126.086 125.01 125.834C126.065 125.676 125.575 123.876 124.798 123.704Z" fill="#010101"/>
<path fill-rule="evenodd" clip-rule="evenodd" d="M97.0407 120.124C97.0035 120.152 96.9708 120.148 96.9009 120.172C96.8549 120.266 96.8044 120.392 96.8239 120.495C96.839 120.63 96.8673 120.667 97.031 120.689C97.0638 120.694 97.0638 120.694 97.1009 120.666C97.1797 120.576 97.2168 120.548 97.239 120.384C97.1867 120.277 97.1956 120.212 97.0734 120.128C97.069 120.161 97.0363 120.157 97.0407 120.124Z" fill="#010101"/>
<path fill-rule="evenodd" clip-rule="evenodd" d="M174.745 130.847C174.368 130.93 174.058 130.755 173.883 131.064C173.653 131.533 174.176 132.104 174.402 132.401C175.535 133.888 176.315 133.793 178.043 133.093C178.467 132.917 179.111 132.837 179.224 132.252C178.947 131.581 175.859 130.998 174.745 130.847Z" fill="#010101"/>
<path fill-rule="evenodd" clip-rule="evenodd" d="M145.944 127.593C144.402 128.151 144.812 129.807 146.444 129.327C147.278 129.073 146.8 127.675 145.944 127.593Z" fill="#010101"/>
<path fill-rule="evenodd" clip-rule="evenodd" d="M70.4425 118.334C69.0771 118.816 70.1747 120.565 71.1552 120.464C71.6826 119.768 71.2656 118.411 70.4425 118.334Z" fill="#010101"/>
<path fill-rule="evenodd" clip-rule="evenodd" d="M191.2 134.669C190.822 134.751 190.635 134.659 190.342 134.853C190.284 135.279 190.454 135.502 190.69 135.734C190.954 136.003 191.185 136.267 191.597 136.423C192.422 136.735 194.017 136.283 194.308 135.855C194.261 135.216 192.052 134.784 191.2 134.669Z" fill="#010101"/>
<path fill-rule="evenodd" clip-rule="evenodd" d="M156.572 130.128C156.465 130.18 156.362 130.199 156.255 130.252C156.163 130.439 156.108 130.599 156.217 130.78C156.404 130.872 156.596 130.931 156.835 130.897C156.95 130.779 157.02 130.755 157.047 130.559C156.98 130.316 156.866 130.167 156.572 130.128Z" fill="#010101"/>
<path fill-rule="evenodd" clip-rule="evenodd" d="M168.515 131.807C168.062 131.946 167.549 132.043 167.629 132.687C167.954 132.998 169.097 133.419 169.406 132.86C169.71 132.335 168.977 131.836 168.515 131.807Z" fill="#010101"/>
<path fill-rule="evenodd" clip-rule="evenodd" d="M209.637 139.125C209.534 139.145 209.431 139.164 209.324 139.216C209.315 139.282 209.311 139.315 209.302 139.38C209.446 139.8 210.775 140.079 211.094 139.689C211.066 139.652 211.07 139.619 211.047 139.549C210.639 139.36 210.226 139.205 209.637 139.125Z" fill="#010101"/>
<path fill-rule="evenodd" clip-rule="evenodd" d="M76.2802 121.522C76.2103 121.546 76.136 121.603 76.0661 121.627C75.8777 122.035 75.9751 122.548 76.0247 122.921C76.2346 124.083 76.5887 125.165 77.9329 124.346C79.2399 123.556 77.2626 121.655 76.2802 121.522Z" fill="#010101"/>
<path fill-rule="evenodd" clip-rule="evenodd" d="M63.7943 122.137C63.058 122.405 61.5855 122.939 61.3201 123.67C61.0087 124.495 62.978 125.961 63.4948 126.331C63.7064 126.493 64.125 126.85 64.4701 126.763C64.8852 126.652 64.9213 125.89 64.885 125.419C64.784 124.438 64.8748 122.283 63.7943 122.137Z" fill="#010101"/>
<path fill-rule="evenodd" clip-rule="evenodd" d="M69.1434 124.993C69.0364 125.045 69.0036 125.041 68.9249 125.13C68.6603 125.361 68.7356 126.038 68.7569 126.375C68.8473 127.187 68.7528 128.875 69.9979 128.543C71.9333 128.037 71.2694 126.781 70.2993 125.816C70.0072 125.51 69.7328 125.073 69.1434 124.993Z" fill="#010101"/>
<path fill-rule="evenodd" clip-rule="evenodd" d="M54.3549 127.598C53.5859 127.861 51.9647 128.509 51.6905 129.305C51.5675 129.722 51.8968 130 52.0712 130.19C52.542 130.654 54.3865 132.303 55.206 131.914C55.6439 131.139 55.3188 128.362 54.9506 127.878C54.8373 127.73 54.6496 127.638 54.3549 127.598Z" fill="#010101"/>
<path fill-rule="evenodd" clip-rule="evenodd" d="M59.6268 128.31C59.1702 128.481 59.0667 129.001 59.1181 129.608C59.2236 130.556 59.1178 133.809 60.4107 133.617C61.0921 133.509 63.0982 132.479 63.3176 131.842C63.491 131.299 63.0069 130.933 62.7715 130.701C62.1784 130.154 60.5392 128.466 59.6268 128.31Z" fill="#010101"/>
<path fill-rule="evenodd" clip-rule="evenodd" d="M83.4183 14.5598C82.0157 15.0707 80.9423 15.8593 79.6813 16.556C77.5089 17.8297 75.3037 19.0991 73.1312 20.3728C66.037 24.5163 58.9427 28.6599 51.8484 32.8034C49.3875 34.2382 46.9221 35.7059 44.4285 37.1363C43.9586 37.4063 42.1666 38.3313 42.1481 38.9623C42.7916 39.3826 44.6287 38.8638 45.2446 38.7469C48.0207 38.1881 50.7968 37.6293 53.6056 37.0749C56.1764 36.5551 58.3808 35.7857 60.64 34.8571C62.1169 34.2896 63.5895 33.7549 65.0664 33.1875C69.2787 31.6223 73.4954 30.0243 77.7076 28.4591C79.9908 27.6004 82.2739 26.7417 84.557 25.8829C85.3348 25.5545 86.7021 25.3056 87.2773 24.7498C87.9683 24.0762 87.3938 22.8984 87.1459 22.2648C86.4023 20.364 85.6587 18.4632 84.9434 16.5995C84.5822 15.8172 84.5316 14.7101 83.4183 14.5598Z" fill="white"/>
<path fill-rule="evenodd" clip-rule="evenodd" d="M88.9815 29.4143C87.0744 29.957 85.3178 30.6201 83.5524 31.3487C82.0755 31.9161 80.6029 32.4508 79.126 33.0183C75.1562 34.5162 71.1537 36.0097 67.1511 37.5032C65.1149 38.2619 63.0787 39.0206 61.038 39.812C60.2274 40.136 59.1354 40.322 58.547 40.9761C58.0373 41.5408 58.057 42.8771 58.073 43.7461C58.0299 46.0409 57.9497 48.3639 57.9067 50.6587C57.7554 57.7066 57.6041 64.7546 57.4201 71.7981C57.3708 73.892 57.3216 75.9858 57.2723 78.0797C57.3166 78.9859 57.0858 79.955 57.2788 80.7479C57.5675 81.8204 58.8479 81.2264 59.4532 80.9414C60.6638 80.3713 62.115 79.5003 63.4779 79.2842C65.0832 79.0008 66.1577 80.1794 66.2517 81.4591C66.3342 83.0706 64.8856 83.6752 63.9591 84.117C62.3945 84.8393 60.83 85.5617 59.2327 86.2796C58.5248 86.5841 57.6903 86.8382 57.2983 87.5188C56.9895 88.0773 56.9879 89.0773 57.0305 89.7499C57.0059 91.4136 56.953 93.0402 56.9285 94.704C56.77 100.817 56.6443 106.935 56.4858 113.049C56.4347 114.909 56.3836 116.769 56.3609 118.666C56.3946 119.405 56.1788 120.509 56.8116 120.761C57.224 120.917 57.5913 120.666 57.8054 120.562C58.5921 120.168 59.2894 119.695 60.0478 119.264C61.5645 118.402 63.0856 117.507 64.6024 116.645C65.2492 116.299 66.0289 116.204 66.7368 115.9C67.6217 115.519 68.3978 114.957 69.2261 114.502C72.1197 112.825 75.0178 111.116 77.9442 109.444C78.8096 108.961 80.9794 107.953 81.3979 107.076C81.7748 106.26 81.1515 104.209 80.9868 103.453C80.4218 100.476 79.8568 97.4992 79.2917 94.5222C77.1008 83.0904 74.9142 71.6259 72.7233 60.1941C71.7536 55.0286 70.7467 49.8915 69.7769 44.726C69.3696 42.8039 68.8825 40.2375 71.2196 39.7195C72.4603 39.4202 73.4348 40.352 73.796 41.1342C74.2572 42.1634 74.3512 43.4431 74.5611 44.605C74.9941 46.8307 75.4227 49.0891 75.8558 51.3147C77.9299 62.1306 80.0083 72.9137 82.0824 83.7296C82.5695 86.2959 83.0566 88.8623 83.572 91.4658C83.7172 92.1189 83.8847 93.8419 84.4936 94.0242C85.2714 93.6957 85.4764 91.1895 85.7904 90.0982C86.666 86.0821 87.5787 82.0377 88.4543 78.0215C90.0843 70.6397 91.7188 63.2252 93.3488 55.8434C93.8635 53.5123 94.3827 51.1485 94.8975 48.8174C95.1894 47.8899 95.7166 45.9606 95.6155 44.9801C95.5278 43.9013 95.0816 43.0075 94.7293 42.1598C94.1335 40.6457 93.5421 39.0988 92.9791 37.5891C92.216 35.5856 91.4484 33.6149 90.6853 31.6114C90.2852 30.6238 90.2258 29.5822 88.9815 29.4143Z" fill="white"/>
<path fill-rule="evenodd" clip-rule="evenodd" d="M98.8929 54.2913C98.0142 54.8729 98.0198 56.8074 97.6554 58.0252C96.9602 61.1988 96.2606 64.4052 95.5327 67.5743C93.41 77.1235 91.3201 86.6771 89.1975 96.2262C88.6695 98.6556 88.1415 101.085 87.5763 103.543C87.3392 104.311 86.9898 105.664 87.3448 106.245C87.6387 106.785 88.3307 106.845 89.0706 107.045C90.0724 107.28 91.0415 107.511 92.0433 107.746C92.5628 107.85 93.0823 107.953 93.5974 108.09C95.2372 108.044 95.352 105.959 95.9067 104.567C97.269 100.65 98.6641 96.7374 100.022 92.853C102.45 85.9791 104.883 79.0725 107.311 72.1985C107.915 70.4462 108.546 68.731 109.15 66.9787C109.36 66.407 109.755 65.46 109.465 64.8875C109.156 64.2123 108.117 64.0053 107.358 63.7028C105.717 63.0145 103.231 62.4122 102.185 61.2707C101.747 60.8114 101.582 60.0557 101.334 59.4221C100.915 58.3318 100.491 57.2744 100.071 56.1841C99.856 55.5549 99.6788 54.3974 98.8929 54.2913Z" fill="white"/>
<path fill-rule="evenodd" clip-rule="evenodd" d="M52.6076 51.8771C51.6873 52.5197 51.2787 54.0649 50.7266 55.1907C49.5915 57.6714 48.452 60.1849 47.3496 62.6701C46.1686 65.2446 45.0246 67.7908 43.8435 70.3654C43.1358 71.9036 42.3014 73.3913 41.768 75.1198C41.5946 75.6632 41.6416 76.303 41.6452 76.7702C41.6285 77.6349 41.5791 78.4951 41.5624 79.3597C41.4884 81.8837 41.3816 84.4032 41.3076 86.9271C41.0414 94.8265 40.7796 102.693 40.5134 110.592C40.3566 115.706 40.1626 120.847 40.0058 125.961C40.0475 127.133 39.4895 130.526 40.3754 130.879C41.041 131.135 42.6391 129.917 43.109 129.647C45.2442 128.402 47.3424 127.185 49.4776 125.939C50.1988 125.536 51.4289 125.069 51.4092 123.733C51.8113 106.183 52.2461 88.6372 52.6482 71.0872C52.7476 66.3995 52.8753 61.749 52.9747 57.0612C52.9355 55.6223 53.4184 52.7868 52.7014 51.9231C52.7058 51.8904 52.6731 51.886 52.6076 51.8771Z" fill="white"/>
<path fill-rule="evenodd" clip-rule="evenodd" d="M123.876 70.2671C123.642 70.2689 123.409 70.2707 123.138 70.3008C121.312 70.4878 118.789 69.9138 116.661 69.6264C115.809 69.5115 114.681 69.2258 113.991 69.3993C112.955 69.6597 112.807 71.0066 112.399 72.0518C111.548 74.4042 110.73 76.761 109.879 79.1134C109.622 79.7789 108.901 81.4153 109.07 82.1383C109.292 82.9684 110.624 82.9815 111.737 83.1318C113.996 83.4368 115.745 83.5729 116.332 85.1525C116.451 85.502 116.54 86.0808 116.338 86.587C115.518 88.7102 112.971 88.0662 110.286 87.7038C109.009 87.5314 107.558 87.1687 106.96 87.8883C106.243 88.7583 105.77 91.0283 105.303 92.2656C104.219 95.3534 103.098 98.4696 102.014 101.557C101.639 102.607 101.301 103.628 100.926 104.678C100.812 105.029 100.663 105.643 100.791 105.927C101.052 106.462 102.103 106.337 102.616 106.24C103.843 106.039 106.371 105.346 107.546 106.272C108.359 106.915 108.899 108.355 108.015 109.469C107.695 109.859 106.95 110.192 107.095 110.845C107.734 111.298 109.229 111.834 110.025 111.374C110.569 111.048 110.763 110.107 111.085 109.45C111.685 107.964 112.319 106.483 112.919 104.997C116.355 96.5916 119.818 88.2237 123.253 79.8187C124.097 77.7654 124.937 75.7449 125.748 73.6872C125.992 73.1199 126.576 71.9986 126.272 71.2907C125.917 70.7093 124.858 70.3997 123.876 70.2671Z" fill="white"/>
<path fill-rule="evenodd" clip-rule="evenodd" d="M138.321 75.8847C138.046 75.9476 137.874 75.991 137.768 76.2768C137.617 76.6565 137.822 77.1176 137.922 77.3645C138.143 78.1945 138.233 79.0069 138.38 79.8936C138.965 84.2069 137.39 88.9621 135.59 91.9199C134.173 94.2626 131.981 95.9338 129.686 97.1244C128.825 97.5749 127.883 97.8813 126.97 98.2248C126.481 98.3921 125.865 98.509 125.607 98.9409C125.265 99.4949 125.574 100.17 125.722 100.557C126.156 101.782 126.62 103.045 127.054 104.271C128.119 107.249 129.18 110.259 130.278 113.241C130.726 114.369 130.906 115.994 131.837 116.753C132.256 117.109 134.888 117.865 135.761 117.816C136.364 117.797 136.614 117.431 136.464 116.811C136.021 115.15 134.573 111.554 136.844 110.294C137.207 110.076 137.812 109.791 138.482 110.015C140.529 110.658 140.031 112.124 140.493 113.887C140.927 115.613 142.962 118.321 145.655 117.885C148.824 117.379 151.316 112.747 150.838 108.382C150.367 104.217 147.981 101.395 147.035 97.5327C146.775 96.4973 146.523 94.1628 146.951 92.7202C147.202 91.8538 147.345 91.0396 147.647 90.2802C148.551 88.0349 149.822 86.2728 151.32 84.8079C151.974 84.1627 152.741 83.6661 153.447 83.128C153.67 82.958 154.132 82.7535 154.062 82.2774C153.959 81.5633 151.261 80.799 150.441 80.4549C147.938 79.4835 145.402 78.5077 142.904 77.5036C142.112 77.1966 141.353 76.8941 140.561 76.5871C139.801 76.2845 139.206 76.0041 138.321 75.8847Z" fill="white"/>
<path fill-rule="evenodd" clip-rule="evenodd" d="M130.755 75.13C129.656 75.6151 129.325 77.5709 128.764 78.7622C127.282 82.3297 125.796 85.93 124.347 89.5019C123.902 90.5755 123.49 91.6534 123.045 92.7269C122.838 93.2659 122.857 93.8686 123.335 94.0331C124.099 94.3029 126.153 93.4133 126.684 93.1849C130.433 91.5905 132.02 89.4708 133.423 84.759C133.511 84.1041 133.599 83.4492 133.692 82.7616C133.726 82.266 133.727 81.766 133.76 81.2704C133.634 79.4863 133.292 78.0731 132.567 76.7749C132.183 76.1563 131.704 75.2582 130.755 75.13Z" fill="white"/>
<path fill-rule="evenodd" clip-rule="evenodd" d="M159.13 86.2291C158.724 86.2743 158.322 86.2867 157.916 86.3319C156.778 86.6117 155.637 87.1579 154.868 87.9208C154.102 88.651 153.328 89.4467 152.761 90.4371C152.41 91.0566 152.117 91.7505 151.851 92.4815C150.529 96.1039 152.652 99.3913 153.703 101.734C154.473 103.438 155.095 105.256 155.419 107.3C155.542 108.117 155.493 108.977 155.537 109.883C155.575 110.588 155.475 111.575 155.243 112.311C155.052 112.985 155.037 113.583 154.822 114.188C154.32 115.687 153.741 117.009 152.956 118.137C152.498 118.808 151.919 119.397 151.367 120.023C151.21 120.202 150.838 120.485 150.851 120.887C150.885 121.125 151.06 121.315 151.247 121.407C151.961 121.803 152.989 121.842 153.855 122.092C154.244 122.178 154.637 122.231 155.025 122.317C156.501 122.25 156.838 120.495 157.408 119.238C158.791 116.157 160.211 113.048 161.594 109.967C163.689 105.316 165.784 100.664 167.874 96.0449C168.44 94.8209 168.968 93.6252 169.533 92.4012C169.722 91.9932 170.076 91.341 169.951 90.7905C169.912 90.5852 169.737 90.395 169.587 90.2746C169.229 89.9596 166.857 89.006 166.157 89.0114C165.488 89.0212 164.77 89.1576 164.067 88.9293C163.111 88.6003 162.601 87.9313 161.939 87.4084C161.223 86.7783 160.44 86.4059 159.13 86.2291Z" fill="white"/>
<path fill-rule="evenodd" clip-rule="evenodd" d="M175.562 92.4482C175.245 92.5722 174.983 92.5368 174.751 92.7722C174.324 93.2148 174.133 93.8892 173.853 94.4848C173.237 95.8353 172.654 97.1903 172.043 98.5081C169.336 104.478 166.667 110.419 163.961 116.388C163.148 118.212 162.302 120.032 161.489 121.856C161.154 122.611 161.039 123.462 161.724 123.822C162.193 124.052 162.754 124.094 163.335 124.239C164.402 124.483 165.498 124.764 166.565 125.009C167.076 125.177 167.899 125.255 168.168 124.991C168.59 124.582 168.019 122.637 167.926 122.091C167.534 119.805 167.84 115.812 168.661 113.189C169.076 111.844 169.355 110.515 169.855 109.282C171.376 105.42 173.035 101.776 175.326 98.8847C176.252 97.7093 177.173 96.5667 178.179 95.5356C178.452 95.2391 179.211 94.808 179.131 94.1637C178.999 93.4124 176.544 92.5808 175.562 92.4482Z" fill="white"/>
<path fill-rule="evenodd" clip-rule="evenodd" d="M192.199 96.8948C191.989 96.9665 191.821 96.9771 191.701 97.1276C191.348 97.5135 191.593 98.9135 191.629 99.3852C191.898 102.089 191.219 106.131 190.337 108.713C188.252 114.766 185.801 119.837 182.135 123.776C181.514 124.426 180.93 125.047 180.285 125.627C179.825 126.065 179.249 126.387 178.85 126.867C178.489 127.318 178.838 127.699 179.181 127.879C180.09 128.301 182.768 128.963 183.39 128.313C183.965 127.758 184.224 126.826 184.601 126.01C185.267 124.533 185.933 123.055 186.599 121.578C188.924 116.458 191.249 111.337 193.542 106.212C194.267 104.542 195.021 102.91 195.746 101.241C195.981 100.739 196.655 99.6969 196.519 98.9783C196.391 98.1942 193.443 97.0627 192.199 96.8948Z" fill="white"/>
<path fill-rule="evenodd" clip-rule="evenodd" d="M185.238 96.5886C184.968 96.6187 184.725 96.686 184.454 96.7162C182.512 97.5209 181.044 99.2565 179.725 100.879C176.911 104.433 175.096 108.489 173.407 113.596C172.626 115.924 172.236 119.306 172.58 121.453C172.731 122.307 172.906 123.231 173.727 123.575C174.327 123.822 174.937 123.505 175.295 123.32C176.44 122.741 177.391 121.869 178.253 120.918C181.057 117.929 183.131 114.175 184.887 109.811C185.387 108.578 185.662 107.282 186.105 105.975C186.849 103.674 187.13 100.111 186.648 98.246C186.484 97.4902 186.254 96.7256 185.238 96.5886Z" fill="white"/>
<path fill-rule="evenodd" clip-rule="evenodd" d="M201.942 101.778C201.527 101.888 201.237 101.816 200.907 102.038C200.432 102.341 200.195 103.109 199.919 103.672C199.354 104.896 198.784 106.152 198.219 107.376C197.754 108.347 197.045 109.652 198.273 110.184C198.808 110.423 199.777 110.654 200.417 110.607C201.052 110.593 201.6 110.734 202.17 110.711C204.262 110.526 205.719 109.856 206.67 108.251C207.145 107.448 207.75 105.929 207.437 104.787C206.919 102.95 204.463 102.118 201.942 101.778Z" fill="white"/>
<path fill-rule="evenodd" clip-rule="evenodd" d="M213.23 105.102C213.02 105.174 212.856 105.151 212.707 105.265C212.211 105.731 212.123 107.62 211.849 108.416C211.103 110.483 210.114 111.883 208.777 113.136C207.4 114.451 205.27 115.163 203.066 115.433C202.319 115.532 201.533 115.426 200.697 115.446C199.627 115.468 198.003 115.149 197.047 114.82C196.569 114.656 195.83 114.456 195.406 114.632C194.628 114.96 194.338 116.121 193.924 116.966C192.931 119.132 191.967 121.336 190.974 123.503C190.262 125.073 189.55 126.644 188.837 128.215C188.594 128.783 188.39 129.555 188.8 129.977C189.449 130.598 191.436 130.7 192.49 131.042C195.365 131.73 198.243 132.386 201.118 133.074C201.984 133.324 204.368 133.946 205.043 133.637C205.615 133.348 205.848 132.612 206.17 131.956C206.799 130.507 207.457 129.095 208.086 127.646C210.24 122.803 212.427 117.963 214.581 113.12C215.16 111.797 215.767 110.512 216.345 109.19C216.584 108.655 217.111 107.96 217.082 107.189C217.085 106.923 216.952 106.671 216.773 106.514C216.302 106.05 214.179 105.23 213.23 105.102Z" fill="white"/>
<path fill-rule="evenodd" clip-rule="evenodd" d="M315.03 121.579C313.809 121.981 312.05 122.91 311.197 123.795C310.464 124.53 309.925 125.557 309.363 126.515C308.513 127.867 307.627 129.248 306.777 130.6C302.46 137.386 298.139 144.205 293.818 151.023C292.761 152.681 291.736 154.343 290.679 156.001C290.12 156.925 289.337 157.787 288.958 158.869C288.596 159.82 289.509 161.211 289.979 161.674C290.479 162.175 290.933 161.77 291.168 161.268C291.416 160.668 291.668 160.035 291.915 159.435C292.522 158.15 293.251 156.948 293.972 155.812C296.113 152.3 299.072 149.398 302.156 147.047C303.123 146.311 304.187 145.588 305.234 144.996C305.955 144.593 306.733 144.264 307.171 143.49C307.521 142.871 307.567 142.043 307.799 141.308C308.212 139.73 308.63 138.119 309.01 136.537C309.352 135.483 309.394 134.188 310.213 133.798C311.065 133.413 313.524 134.712 314.275 135.08C317.984 136.748 321.665 138.378 325.374 140.046C326.504 140.565 327.638 141.052 328.769 141.571C329.209 141.764 329.823 141.914 330.157 141.659C330.25 140.971 329.738 140.568 329.463 140.131C328.67 139.091 327.914 138.022 327.121 136.981C324.321 133.269 321.559 129.529 318.759 125.816C317.995 124.813 317.263 123.814 316.498 122.811C316.114 122.192 315.849 121.689 315.03 121.579Z" fill="white"/>
<path fill-rule="evenodd" clip-rule="evenodd" d="M220.982 109.916C220.809 109.959 220.604 109.998 220.431 110.042C219.784 110.388 219.512 111.418 219.148 112.136C218.441 113.674 217.766 115.217 217.062 116.722C216.552 117.787 216.041 118.851 217.335 119.393C217.902 119.636 218.88 119.801 219.549 119.792C220.011 119.821 220.511 119.822 220.974 119.851C222.697 119.683 224.113 119.074 224.958 117.755C225.208 117.388 225.4 116.947 225.593 116.507C226.749 113.629 224.959 111.82 223.162 110.81C222.579 110.432 221.931 110.044 220.982 109.916Z" fill="white"/>
<path fill-rule="evenodd" clip-rule="evenodd" d="M230.173 111.724C229.758 111.834 229.45 111.893 229.497 112.533C229.586 113.111 229.67 113.723 229.726 114.297C229.859 115.782 229.312 117.609 228.769 118.669C227.912 120.321 226.838 121.609 225.359 122.443C224.782 122.765 223.163 123.147 222.854 123.705C222.467 124.353 223.169 125.081 223.382 125.477C224.018 126.696 224.345 127.974 224.419 129.651C224.501 131.763 223.346 134.141 222.462 135.255C222.027 135.763 221.596 136.239 221.193 136.751C220.847 137.338 221.336 137.67 221.814 137.835C222.671 138.151 225.701 138.927 226.206 138.395C226.628 137.985 226.567 136.71 226.553 136.074C226.619 135.583 226.685 135.092 226.751 134.601C226.8 134.24 226.849 133.88 226.926 133.557C227.139 132.719 227.319 131.877 227.532 131.039C227.956 129.629 228.347 128.214 228.771 126.805C229.832 123.881 230.721 121 231.868 118.187C232.276 117.142 232.684 116.097 233.091 115.052C233.28 114.644 233.606 113.954 233.443 113.432C233.25 112.639 231.254 111.869 230.173 111.724Z" fill="white"/>
<path fill-rule="evenodd" clip-rule="evenodd" d="M237.996 114.78C237.716 114.876 237.483 114.878 237.288 115.085C236.597 115.758 236.034 117.95 235.589 119.023C234.489 121.742 233.539 124.581 232.519 127.444C232.091 128.887 231.667 130.296 231.239 131.739C230.956 132.601 230.902 133.494 230.606 134.454C230.478 134.904 230.357 135.554 230.361 136.021C230.366 136.722 230.153 137.56 230.753 137.808C231.325 138.019 231.778 137.38 232.014 137.112C232.959 136.039 233.579 134.655 234.326 133.323C236.437 129.54 237.959 125.178 239.787 121.023C240.228 119.983 240.664 118.975 241.104 117.934C241.256 117.554 241.569 116.963 241.434 116.478C241.237 115.718 239.077 114.926 237.996 114.78Z" fill="white"/>
<path fill-rule="evenodd" clip-rule="evenodd" d="M36.021 88.5474C35.3741 88.8935 35.0866 89.7882 34.7186 90.5387C34.1444 91.8282 33.5419 93.0805 32.9677 94.37C31.9707 96.5693 30.978 98.7359 29.9809 100.935C29.6456 101.69 28.8095 102.944 28.8689 103.986C28.9434 105.163 29.4657 106.234 29.8658 107.221C30.5918 109.253 31.3222 111.252 32.0154 113.279C32.6696 115.101 33.2212 116.943 33.9825 118.713C34.1826 119.207 34.3863 120.168 34.9668 120.313C35.3341 120.062 35.4906 119.15 35.4807 118.482C35.5398 117.056 35.5945 115.663 35.6536 114.237C35.8625 107.997 36.067 101.79 36.2432 95.5457C36.281 93.7837 36.3471 92.0589 36.385 90.2969C36.399 89.6987 36.5644 88.7207 36.021 88.5474Z" fill="white"/>
<path fill-rule="evenodd" clip-rule="evenodd" d="M120.125 100.768C119.358 101.265 119.142 102.369 118.719 103.279C117.829 105.426 116.939 107.573 116.045 109.753C115.756 110.414 114.895 112.098 115.269 112.782C115.753 113.648 119.213 113.948 120.459 114.35C121.559 114.598 122.622 114.875 123.722 115.124C124.139 115.247 124.826 115.34 125.148 115.183C125.469 115.026 125.568 114.539 125.453 114.157C125.194 113.355 124.899 112.582 124.64 111.78C123.647 109.012 122.625 106.207 121.632 103.439C121.393 102.74 120.977 100.883 120.125 100.768Z" fill="white"/>
<path fill-rule="evenodd" clip-rule="evenodd" d="M246.105 117.942C245.862 118.009 245.666 117.983 245.451 118.087C244.693 118.518 243.716 121.554 243.243 122.59C241.199 127.115 239.497 131.82 237.206 135.945C236.731 136.748 236.288 137.555 235.809 138.391C235.518 138.818 235.194 139.241 234.903 139.669C234.557 140.255 234.729 140.712 235.263 140.951C236.079 141.328 237.67 141.643 238.245 141.087C238.705 140.649 238.9 139.942 239.185 139.313C239.713 138.118 240.241 136.922 240.737 135.722C242.565 131.568 244.397 127.38 246.225 123.226C246.518 122.532 246.812 121.838 247.106 121.145C247.809 119.639 248.368 118.214 246.105 117.942Z" fill="white"/>
<path fill-rule="evenodd" clip-rule="evenodd" d="M252.306 120.413C252.096 120.485 251.83 120.482 251.677 120.628C250.883 121.321 250.163 123.691 249.639 124.854C247.807 129.041 245.975 133.228 244.11 137.411C243.582 138.606 243.049 139.835 242.554 141.035C242.247 141.827 242.401 142.415 242.996 142.695C244.755 143.499 245.205 141.893 245.724 140.763C246.022 140.036 246.353 139.314 246.647 138.62C248.631 134.053 250.642 129.524 252.626 124.957C252.865 124.423 253.071 123.884 253.31 123.349C253.934 121.933 254.406 120.663 252.306 120.413Z" fill="white"/>
<path fill-rule="evenodd" clip-rule="evenodd" d="M258.52 122.786C258.278 122.853 258.044 122.855 257.863 122.964C257.137 123.399 256.463 125.675 256.036 126.618C254.497 130.111 252.992 133.609 251.458 137.069C251.017 138.11 250.539 139.179 250.099 140.22C249.897 140.726 249.771 141.409 250.208 141.635C250.611 141.856 251.223 141.772 251.633 141.694C252.548 141.584 253.431 141.47 254.35 141.327C254.957 141.276 255.523 141.285 255.988 141.048C256.854 140.565 257.329 138.529 257.806 137.459C259.041 134.492 260.275 131.524 261.546 128.529C261.877 127.806 263.069 125.4 262.707 124.618C262.357 124.004 259.601 122.931 258.52 122.786Z" fill="white"/>
<path fill-rule="evenodd" clip-rule="evenodd" d="M302.314 129.331C301.097 129.7 300.247 130.319 299.229 130.948C297.74 131.848 296.256 132.714 294.768 133.614C293.972 134.073 293.192 134.668 292.34 135.053C291.948 135.234 291.328 135.383 290.686 135.197C290.012 135.005 288.825 134.412 288.433 135.092C288.05 135.708 288.219 136.931 288.228 137.599C288.243 139.468 288.22 141.365 288.234 143.234C288.231 145.234 288.228 147.234 288.262 149.206C288.304 149.879 288.135 150.889 288.628 151.189C289.101 151.386 289.451 150.767 289.659 150.462C290.362 149.456 291.003 148.409 291.682 147.334C294.434 143.004 297.222 138.646 299.979 134.284C300.74 133.086 301.469 131.884 302.231 130.687C302.365 130.438 302.84 129.635 302.543 129.362C302.436 129.414 302.375 129.373 302.314 129.331Z" fill="white"/>
<path fill-rule="evenodd" clip-rule="evenodd" d="M266.872 126.614C265.782 127.033 265.313 129.271 264.753 130.462C263.317 133.936 261.853 137.372 260.417 140.846C260.114 141.605 259.812 142.365 259.513 143.091C259.367 143.438 259.029 143.959 259.09 144.501C259.135 144.907 259.394 145.209 259.741 145.356C261.378 146.077 263.542 145.602 264.543 145.104C268.024 143.273 269.392 137.09 268.831 132.113C268.665 130.623 268.449 129.26 267.986 127.998C267.758 127.467 267.584 126.776 266.872 126.614Z" fill="white"/>
<path fill-rule="evenodd" clip-rule="evenodd" d="M15.5805 93.2564C15.5106 93.2803 15.4734 93.3086 15.3991 93.3653C15.162 94.1335 15.4117 95.0007 15.5569 95.6538C15.7606 96.6148 15.9687 97.5431 16.1724 98.5042C17.0499 102.624 17.9275 106.743 18.8378 110.867C19.1566 112.21 19.3683 113.606 19.7286 114.888C19.8198 115.201 19.9757 116.022 20.4235 115.915C20.9128 115.748 21.0322 114.864 21.2056 114.321C21.6231 112.71 22.0733 111.104 22.4908 109.493C22.704 108.655 22.9543 107.788 23.1675 106.95C23.3957 106.248 23.7708 105.198 23.6476 104.381C23.49 103.326 22.6722 102.716 22.18 101.916C21.0887 100.368 19.9601 98.8488 18.8687 97.3012C18.2677 96.3198 17.3179 94.958 16.5311 94.1182C16.3045 93.8209 16.0956 93.3926 15.5805 93.2564Z" fill="white"/>
<path fill-rule="evenodd" clip-rule="evenodd" d="M272.924 128.464C272.118 128.756 272.207 129.334 272.358 130.188C272.574 131.551 272.609 133.023 272.667 134.564C272.618 135.425 272.569 136.285 272.519 137.145C272.431 137.8 272.31 138.45 272.217 139.138C271.984 139.873 271.957 140.57 271.729 141.273C271.167 142.964 270.533 144.445 269.608 145.621C269.164 146.194 267.994 147.203 267.746 147.803C267.485 148.502 268.36 148.687 268.843 148.818C270.613 149.291 271.447 145.336 272.03 143.981C273.411 140.666 274.792 137.352 276.173 134.037C276.504 133.315 277.595 131.162 277.229 130.412C276.896 129.667 274.075 128.586 272.924 128.464Z" fill="white"/>
<path fill-rule="evenodd" clip-rule="evenodd" d="M281.825 131.933C281.615 132.005 281.382 132.007 281.228 132.153C280.485 132.719 279.936 134.812 279.5 135.82C278.119 139.135 276.766 142.486 275.385 145.801C275.1 146.429 274.075 148.591 274.178 149.305C274.219 149.744 274.553 149.989 274.965 150.145C276.933 150.877 277.361 148.201 277.931 146.945C279.509 143.157 281.051 139.397 282.629 135.609C283.295 134.132 284.285 132.232 281.825 131.933Z" fill="white"/>
<path fill-rule="evenodd" clip-rule="evenodd" d="M215.023 123.182C214.813 123.253 214.654 123.198 214.473 123.307C213.789 123.682 213.49 124.908 213.117 125.692C212.254 127.642 211.362 129.556 210.499 131.506C209.938 132.698 209.353 133.819 210.806 134.415C211.533 134.713 212.764 134.98 213.67 134.935C214.133 134.964 214.563 134.989 215.03 134.985C217.183 134.843 218.842 134.166 219.833 132.5C220.026 132.059 220.215 131.651 220.408 131.21C221.542 127.996 219.259 125.887 217.571 124.559C216.908 124.036 216.071 123.323 215.023 123.182Z" fill="white"/>
<path fill-rule="evenodd" clip-rule="evenodd" d="M283.977 143.16C283.116 143.61 282.81 145.136 282.345 146.107C281.854 147.274 281.359 148.474 280.868 149.642C280.712 150.054 280.488 150.724 280.702 151.119C280.967 151.622 281.659 151.682 282.329 151.906C282.685 151.987 283.013 152.032 283.368 152.113C284.275 152.069 284.555 151.473 284.5 150.399C284.492 148.73 284.488 147.029 284.447 145.357C284.404 144.684 284.586 143.342 283.977 143.16Z" fill="white"/>
<path fill-rule="evenodd" clip-rule="evenodd" d="M304.87 149.914C303.463 150.458 302.378 151.578 301.372 152.61C299.017 154.992 296.776 157.757 295.209 161.213C294.116 163.633 293.763 166.986 295.875 168.138C297.55 169.064 299.54 167.166 300.295 166.268C300.573 165.938 301.181 165.387 301.106 164.71C301.006 163.963 300.116 163.643 299.497 163.292C298.567 162.767 297.601 162.27 297.456 161.117C297.416 160.678 297.547 160.195 297.751 159.923C298.473 159.02 299.848 159.206 300.937 159.786C301.308 160.003 302.073 160.506 302.646 160.217C303.325 159.875 303.349 158.711 303.595 157.878C304.081 156.009 304.534 154.137 305.019 152.268C305.243 151.598 305.45 150.559 305.189 150.024C305.123 150.015 304.997 149.965 304.87 149.914Z" fill="white"/>
<path fill-rule="evenodd" clip-rule="evenodd" d="M26.7065 113.83C25.7534 114.468 25.3946 117.62 24.9381 119.026C24.4109 120.955 23.9165 122.889 23.3893 124.818C23.1062 125.68 22.5843 127.076 22.6437 128.118C22.7076 129.127 22.9528 130.027 23.1697 130.89C23.4168 132.023 23.6594 133.19 23.9065 134.323C24.1881 135.695 24.5069 137.038 24.7885 138.41C24.8992 138.825 25.0683 139.548 25.7409 139.506C26.6515 139.428 28.3567 138.158 29.1522 137.699C30.2778 137.017 31.4317 136.373 32.5573 135.691C33.0971 135.397 33.7723 135.088 34.1094 134.567C34.6305 133.671 33.6967 131.944 33.4249 131.241C32.3598 128.263 31.3231 125.322 30.2581 122.344C29.456 120.136 28.6867 117.931 27.889 115.69C27.6607 115.159 27.5251 113.94 26.7065 113.83Z" fill="white"/>
<path fill-rule="evenodd" clip-rule="evenodd" d="M320.988 166.36C318.949 166.152 316.943 165.948 314.903 165.739C313.969 165.746 312.957 165.343 312.31 165.689C311.84 165.959 311.817 166.623 311.602 167.227C311.12 168.329 310.675 169.403 310.193 170.504C309.862 171.227 308.69 173.236 309.08 174.055C309.896 174.432 311.509 173.349 312.151 173.036C314.903 171.674 317.682 170.349 320.433 168.986C321.113 168.644 323.252 167.866 323.423 167.089C323.134 166.517 321.905 166.484 320.988 166.36Z" fill="white"/>
<path fill-rule="evenodd" clip-rule="evenodd" d="M305.439 166.695C305.229 166.767 305.037 166.708 304.856 166.817C304.176 167.158 303.578 168.378 303.035 168.938C302.021 170.035 300.822 171.007 299.444 171.587C298.843 171.84 296.971 172.12 296.728 172.688C296.485 173.255 297.027 173.928 297.249 174.258C297.789 175.198 298.334 176.105 298.874 177.045C299.172 177.552 299.448 178.223 300.011 178.499C300.827 178.876 302.152 177.954 302.598 177.614C303.453 176.963 303.784 175.741 304.304 174.611C305.176 172.594 306.081 170.583 306.953 168.567C307.263 167.508 306.38 166.889 305.439 166.695Z" fill="white"/>
<path fill-rule="evenodd" clip-rule="evenodd" d="M45.0838 133.048C44.2493 133.302 42.2326 134.163 41.9539 134.993C41.8354 135.377 42.1186 135.748 42.2974 135.906C42.9143 136.523 43.7171 136.998 44.4455 137.53C44.657 137.691 44.9863 137.969 45.388 137.957C45.8925 137.925 46.0269 137.176 45.9711 136.602C45.9444 135.565 46.1644 133.194 45.0838 133.048Z" fill="#010101"/>
<path fill-rule="evenodd" clip-rule="evenodd" d="M50.3292 133.956C50.1194 134.028 49.984 134.043 49.8593 134.226C49.4718 134.874 49.766 137.881 50.0032 138.347C50.1121 138.528 50.3431 138.792 50.7165 138.743C51.459 138.676 52.8032 137.858 53.3607 137.433C53.5465 137.291 53.8721 137.102 53.8641 136.667C53.8234 136.228 53.4242 135.974 53.1233 135.734C52.4276 135.206 51.3115 134.089 50.3292 133.956Z" fill="#010101"/>
<path fill-rule="evenodd" clip-rule="evenodd" d="M35.4915 138.655C34.6941 138.88 33.3287 139.363 33.0217 140.155C32.7475 140.952 34.2937 142.094 34.7406 142.488C34.9194 142.645 35.2071 142.984 35.5805 142.934C36.0522 142.898 36.1866 142.149 36.168 141.547C36.1369 140.542 36.48 138.988 35.4915 138.655Z" fill="#010101"/>
<path fill-rule="evenodd" clip-rule="evenodd" d="M40.5554 139.672C40.3784 139.748 40.2059 139.791 40.1139 139.979C39.7219 140.659 39.8922 143.35 40.1666 143.787C40.2471 143.931 40.4914 144.097 40.7949 144.072C41.4675 144.029 43.4825 142.934 43.6603 142.358C43.816 141.946 43.454 141.663 43.2796 141.473C42.7238 140.898 41.5422 139.772 40.5554 139.672Z" fill="#010101"/>
<path fill-rule="evenodd" clip-rule="evenodd" d="M27.5839 143.389C26.6008 143.756 27.2868 144.849 28.1408 144.697C28.5106 144.18 28.1733 143.468 27.5839 143.389Z" fill="#010101"/>
</svg>
